# xmcd
#
# Track frame offsets: 
#        150
#        13005
#        24645
#        37514
#        50177
#        64597
#        77656
#        89610
#        103006
#        114895
#        127186
#        140409
#        153526
#        165999
#        180384
#        192226
#        205765
#        216837
#        227758
#        239036
#        251254
#        266170
#        280422
#        292728
#        305303
#
# Disc length: 4175 seconds
#
# Revision: 0
# Processed by: cddbd v1.5.2PL0 Copyright (c) Steve Scherf et al.
# Submitted via: ExactAudioCopy v1.0b1
#
DISCID=5c104d19
DTITLE=Red Foley - Chattanoogie Shoe Shine Boy
DYEAR=2007
DGENRE=Country
TTITLE0=Chattanoogie Shoe Shine Boy
TTITLE1=Mississippi
TTITLE2=Cincinnati Dancing Pig
TTITLE3=Alabama Jubilee
TTITLE4=Midnight
TTITLE5=Satisfied Mind
TTITLE6=Tennessee Border No.2
TTITLE7=One By One
TTITLE8=Pinball Boogie
TTITLE9=Playing Dominoes And Shooting Dice
TTITLE10=Ruby Red Lips
TTITLE11=Shake A Hand
TTITLE12=Tennessee Border
TTITLE13=The Strange Little Girl
TTITLE14=As Long As I Live
TTITLE15=Candy Kisses
TTITLE16=Don't Let The Stars Get In Your Eyes
TTITLE17=Hearts Of Stone
TTITLE18=Hoot Owl Boogie
TTITLE19=I'll Never Let You Worry My Mind
TTITLE20=Kentucky Waltz
TTITLE21=New Jolie Blond
TTITLE22=My Window Faces South
TTITLE23=Milk Bucket Boogie
TTITLE24=Salty Dog Rag
EXTD=
EXTT0=
EXTT1=
EXTT2=
EXTT3=
EXTT4=
EXTT5=
EXTT6=
EXTT7=
EXTT8=
EXTT9=
EXTT10=
EXTT11=
EXTT12=
EXTT13=
EXTT14=
EXTT15=
EXTT16=
EXTT17=
EXTT18=
EXTT19=
EXTT20=
EXTT21=
EXTT22=
EXTT23=
EXTT24=
PLAYORDER=
